<?xml version="1.0" encoding="utf-8" standalone="no"?>
<!DOCTYPE svg PUBLIC "-//W3C//DTD SVG 1.1//EN"
  "http://www.w3.org/Graphics/SVG/1.1/DTD/svg11.dtd">
<svg xmlns:xlink="http://www.w3.org/1999/xlink" width="720pt" height="432pt" viewBox="0 0 720 432" xmlns="http://www.w3.org/2000/svg" version="1.1">
 <metadata>
  <rdf:RDF xmlns:dc="http://purl.org/dc/elements/1.1/" xmlns:cc="http://creativecommons.org/ns#" xmlns:rdf="http://www.w3.org/1999/02/22-rdf-syntax-ns#">
   <cc:Work>
    <dc:type rdf:resource="http://purl.org/dc/dcmitype/StillImage"/>
    <dc:date>2025-10-24T17:12:44.375298</dc:date>
    <dc:format>image/svg+xml</dc:format>
    <dc:creator>
     <cc:Agent>
      <dc:title>Matplotlib v3.10.7, https://matplotlib.org/</dc:title>
     </cc:Agent>
    </dc:creator>
   </cc:Work>
  </rdf:RDF>
 </metadata>
 <defs>
  <style type="text/css">*{stroke-linejoin: round; stroke-linecap: butt}</style>
 </defs>
 <g id="figure_1">
  <g id="patch_1">
   <path d="M 0 432 
L 720 432 
L 720 0 
L 0 0 
z
" style="fill: #ffffff"/>
  </g>
  <g id="axes_1">
   <g id="patch_2">
    <path d="M 90 384.48 
L 648 384.48 
L 648 51.84 
L 90 51.84 
z
" style="fill: #ffffff"/>
   </g>
   <g id="matplotlib.axis_1">
    <g id="xtick_1">
     <g id="line2d_1">
      <path d="M 115.80218 384.48 
L 115.80218 51.84 
" clip-path="url(#pdd62ebde67)" style="fill: none; stroke: #b0b0b0; stroke-width: 0.8; stroke-linecap: square"/>
     </g>
     <g id="line2d_2">
      <defs>
       <path id="m443aa1363d" d="M 0 0 
L 0 3.5 
" style="stroke: #000000; stroke-width: 0.8"/>
      </defs>
      <g>
       <use xlink:href="#m443aa1363d" x="115.80218" y="384.48" style="stroke: #000000; stroke-width: 0.8"/>
      </g>
     </g>
     <g id="text_1">
      <!-- 10s -->
      <g transform="translate(106.834992 399.078438) scale(0.1 -0.1)">
       <defs>
        <path id="DejaVuSans-31" d="M 794 531 
L 1825 531 
L 1825 4091 
L 703 3866 
L 703 4441 
L 1819 4666 
L 2450 4666 
L 2450 531 
L 3481 531 
L 3481 0 
L 794 0 
L 794 531 
z
" transform="scale(0.015625)"/>
        <path id="DejaVuSans-30" d="M 2034 4250 
Q 1547 4250 1301 3770 
Q 1056 3291 1056 2328 
Q 1056 1369 1301 889 
Q 1547 409 2034 409 
Q 2525 409 2770 889 
Q 3016 1369 3016 2328 
Q 3016 3291 2770 3770 
Q 2525 4250 2034 4250 
z
M 2034 4750 
Q 2819 4750 3233 4129 
Q 3647 3509 3647 2328 
Q 3647 1150 3233 529 
Q 2819 -91 2034 -91 
Q 1250 -91 836 529 
Q 422 1150 422 2328 
Q 422 3509 836 4129 
Q 1250 4750 2034 4750 
z
" transform="scale(0.015625)"/>
        <path id="DejaVuSans-73" d="M 2834 3397 
L 2834 2853 
Q 2591 2978 2328 3040 
Q 2066 3103 1784 3103 
Q 1356 3103 1142 2972 
Q 928 2841 928 2578 
Q 928 2378 1081 2264 
Q 1234 2150 1697 2047 
L 1894 2003 
Q 2506 1872 2764 1633 
Q 3022 1394 3022 966 
Q 3022 478 2636 193 
Q 2250 -91 1575 -91 
Q 1294 -91 989 -36 
Q 684 19 347 128 
L 347 722 
Q 666 556 975 473 
Q 1284 391 1588 391 
Q 1994 391 2212 530 
Q 2431 669 2431 922 
Q 2431 1156 2273 1281 
Q 2116 1406 1581 1522 
L 1381 1569 
Q 847 1681 609 1914 
Q 372 2147 372 2553 
Q 372 3047 722 3315 
Q 1072 3584 1716 3584 
Q 2034 3584 2315 3537 
Q 2597 3491 2834 3397 
z
" transform="scale(0.015625)"/>
       </defs>
       <use xlink:href="#DejaVuSans-31"/>
       <use xlink:href="#DejaVuSans-30" transform="translate(63.623047 0)"/>
       <use xlink:href="#DejaVuSans-73" transform="translate(127.246094 0)"/>
      </g>
     </g>
    </g>
    <g id="xtick_2">
     <g id="line2d_3">
      <path d="M 193.746225 384.48 
L 193.746225 51.84 
" clip-path="url(#pdd62ebde67)" style="fill: none; stroke: #b0b0b0; stroke-width: 0.8; stroke-linecap: square"/>
     </g>
     <g id="line2d_4">
      <g>
       <use xlink:href="#m443aa1363d" x="193.746225" y="384.48" style="stroke: #000000; stroke-width: 0.8"/>
      </g>
     </g>
     <g id="text_2">
      <!-- 30m 10s -->
      <g transform="translate(171.957162 399.078438) scale(0.1 -0.1)">
       <defs>
        <path id="DejaVuSans-33" d="M 2597 2516 
Q 3050 2419 3304 2112 
Q 3559 1806 3559 1356 
Q 3559 666 3084 287 
Q 2609 -91 1734 -91 
Q 1441 -91 1130 -33 
Q 819 25 488 141 
L 488 750 
Q 750 597 1062 519 
Q 1375 441 1716 441 
Q 2309 441 2620 675 
Q 2931 909 2931 1356 
Q 2931 1769 2642 2001 
Q 2353 2234 1838 2234 
L 1294 2234 
L 1294 2753 
L 1863 2753 
Q 2328 2753 2575 2939 
Q 2822 3125 2822 3475 
Q 2822 3834 2567 4026 
Q 2313 4219 1838 4219 
Q 1578 4219 1281 4162 
Q 984 4106 628 3988 
L 628 4550 
Q 988 4650 1302 4700 
Q 1616 4750 1894 4750 
Q 2613 4750 3031 4423 
Q 3450 4097 3450 3541 
Q 3450 3153 3228 2886 
Q 3006 2619 2597 2516 
z
" transform="scale(0.015625)"/>
        <path id="DejaVuSans-6d" d="M 3328 2828 
Q 3544 3216 3844 3400 
Q 4144 3584 4550 3584 
Q 5097 3584 5394 3201 
Q 5691 2819 5691 2113 
L 5691 0 
L 5113 0 
L 5113 2094 
Q 5113 2597 4934 2840 
Q 4756 3084 4391 3084 
Q 3944 3084 3684 2787 
Q 3425 2491 3425 1978 
L 3425 0 
L 2847 0 
L 2847 2094 
Q 2847 2600 2669 2842 
Q 2491 3084 2119 3084 
Q 1678 3084 1418 2786 
Q 1159 2488 1159 1978 
L 1159 0 
L 581 0 
L 581 3500 
L 1159 3500 
L 1159 2956 
Q 1356 3278 1631 3431 
Q 1906 3584 2284 3584 
Q 2666 3584 2933 3390 
Q 3200 3197 3328 2828 
z
" transform="scale(0.015625)"/>
        <path id="DejaVuSans-20" transform="scale(0.015625)"/>
       </defs>
       <use xlink:href="#DejaVuSans-33"/>
       <use xlink:href="#DejaVuSans-30" transform="translate(63.623047 0)"/>
       <use xlink:href="#DejaVuSans-6d" transform="translate(127.246094 0)"/>
       <use xlink:href="#DejaVuSans-20" transform="translate(224.658203 0)"/>
       <use xlink:href="#DejaVuSans-31" transform="translate(256.445312 0)"/>
       <use xlink:href="#DejaVuSans-30" transform="translate(320.068359 0)"/>
       <use xlink:href="#DejaVuSans-73" transform="translate(383.691406 0)"/>
      </g>
     </g>
    </g>
    <g id="xtick_3">
     <g id="line2d_5">
      <path d="M 271.69027 384.48 
L 271.69027 51.84 
" clip-path="url(#pdd62ebde67)" style="fill: none; stroke: #b0b0b0; stroke-width: 0.8; stroke-linecap: square"/>
     </g>
     <g id="line2d_6">
      <g>
       <use xlink:href="#m443aa1363d" x="271.69027" y="384.48" style="stroke: #000000; stroke-width: 0.8"/>
      </g>
     </g>
     <g id="text_3">
      <!-- 1h 10s -->
      <g transform="translate(254.78402 399.078438) scale(0.1 -0.1)">
       <defs>
        <path id="DejaVuSans-68" d="M 3513 2113 
L 3513 0 
L 2938 0 
L 2938 2094 
Q 2938 2591 2744 2837 
Q 2550 3084 2163 3084 
Q 1697 3084 1428 2787 
Q 1159 2491 1159 1978 
L 1159 0 
L 581 0 
L 581 4863 
L 1159 4863 
L 1159 2956 
Q 1366 3272 1645 3428 
Q 1925 3584 2291 3584 
Q 2894 3584 3203 3211 
Q 3513 2838 3513 2113 
z
" transform="scale(0.015625)"/>
       </defs>
       <use xlink:href="#DejaVuSans-31"/>
       <use xlink:href="#DejaVuSans-68" transform="translate(63.623047 0)"/>
       <use xlink:href="#DejaVuSans-20" transform="translate(127.001953 0)"/>
       <use xlink:href="#DejaVuSans-31" transform="translate(158.789062 0)"/>
       <use xlink:href="#DejaVuSans-30" transform="translate(222.412109 0)"/>
       <use xlink:href="#DejaVuSans-73" transform="translate(286.035156 0)"/>
      </g>
     </g>
    </g>
    <g id="xtick_4">
     <g id="line2d_7">
      <path d="M 349.634315 384.48 
L 349.634315 51.84 
" clip-path="url(#pdd62ebde67)" style="fill: none; stroke: #b0b0b0; stroke-width: 0.8; stroke-linecap: square"/>
     </g>
     <g id="line2d_8">
      <g>
       <use xlink:href="#m443aa1363d" x="349.634315" y="384.48" style="stroke: #000000; stroke-width: 0.8"/>
      </g>
     </g>
     <g id="text_4">
      <!-- 1h 30m 10s -->
      <g transform="translate(319.90619 399.078438) scale(0.1 -0.1)">
       <use xlink:href="#DejaVuSans-31"/>
       <use xlink:href="#DejaVuSans-68" transform="translate(63.623047 0)"/>
       <use xlink:href="#DejaVuSans-20" transform="translate(127.001953 0)"/>
       <use xlink:href="#DejaVuSans-33" transform="translate(158.789062 0)"/>
       <use xlink:href="#DejaVuSans-30" transform="translate(222.412109 0)"/>
       <use xlink:href="#DejaVuSans-6d" transform="translate(286.035156 0)"/>
       <use xlink:href="#DejaVuSans-20" transform="translate(383.447266 0)"/>
       <use xlink:href="#DejaVuSans-31" transform="translate(415.234375 0)"/>
       <use xlink:href="#DejaVuSans-30" transform="translate(478.857422 0)"/>
       <use xlink:href="#DejaVuSans-73" transform="translate(542.480469 0)"/>
      </g>
     </g>
    </g>
    <g id="xtick_5">
     <g id="line2d_9">
      <path d="M 427.57836 384.48 
L 427.57836 51.84 
" clip-path="url(#pdd62ebde67)" style="fill: none; stroke: #b0b0b0; stroke-width: 0.8; stroke-linecap: square"/>
     </g>
     <g id="line2d_10">
      <g>
       <use xlink:href="#m443aa1363d" x="427.57836" y="384.48" style="stroke: #000000; stroke-width: 0.8"/>
      </g>
     </g>
     <g id="text_5">
      <!-- 2h 10s -->
      <g transform="translate(410.67211 399.078438) scale(0.1 -0.1)">
       <defs>
        <path id="DejaVuSans-32" d="M 1228 531 
L 3431 531 
L 3431 0 
L 469 0 
L 469 531 
Q 828 903 1448 1529 
Q 2069 2156 2228 2338 
Q 2531 2678 2651 2914 
Q 2772 3150 2772 3378 
Q 2772 3750 2511 3984 
Q 2250 4219 1831 4219 
Q 1534 4219 1204 4116 
Q 875 4013 500 3803 
L 500 4441 
Q 881 4594 1212 4672 
Q 1544 4750 1819 4750 
Q 2544 4750 2975 4387 
Q 3406 4025 3406 3419 
Q 3406 3131 3298 2873 
Q 3191 2616 2906 2266 
Q 2828 2175 2409 1742 
Q 1991 1309 1228 531 
z
" transform="scale(0.015625)"/>
       </defs>
       <use xlink:href="#DejaVuSans-32"/>
       <use xlink:href="#DejaVuSans-68" transform="translate(63.623047 0)"/>
       <use xlink:href="#DejaVuSans-20" transform="translate(127.001953 0)"/>
       <use xlink:href="#DejaVuSans-31" transform="translate(158.789062 0)"/>
       <use xlink:href="#DejaVuSans-30" transform="translate(222.412109 0)"/>
       <use xlink:href="#DejaVuSans-73" transform="translate(286.035156 0)"/>
      </g>
     </g>
    </g>
    <g id="xtick_6">
     <g id="line2d_11">
      <path d="M 505.522405 384.48 
L 505.522405 51.84 
" clip-path="url(#pdd62ebde67)" style="fill: none; stroke: #b0b0b0; stroke-width: 0.8; stroke-linecap: square"/>
     </g>
     <g id="line2d_12">
      <g>
       <use xlink:href="#m443aa1363d" x="505.522405" y="384.48" style="stroke: #000000; stroke-width: 0.8"/>
      </g>
     </g>
     <g id="text_6">
      <!-- 2h 30m 10s -->
      <g transform="translate(475.79428 399.078438) scale(0.1 -0.1)">
       <use xlink:href="#DejaVuSans-32"/>
       <use xlink:href="#DejaVuSans-68" transform="translate(63.623047 0)"/>
       <use xlink:href="#DejaVuSans-20" transform="translate(127.001953 0)"/>
       <use xlink:href="#DejaVuSans-33" transform="translate(158.789062 0)"/>
       <use xlink:href="#DejaVuSans-30" transform="translate(222.412109 0)"/>
       <use xlink:href="#DejaVuSans-6d" transform="translate(286.035156 0)"/>
       <use xlink:href="#DejaVuSans-20" transform="translate(383.447266 0)"/>
       <use xlink:href="#DejaVuSans-31" transform="translate(415.234375 0)"/>
       <use xlink:href="#DejaVuSans-30" transform="translate(478.857422 0)"/>
       <use xlink:href="#DejaVuSans-73" transform="translate(542.480469 0)"/>
      </g>
     </g>
    </g>
    <g id="xtick_7">
     <g id="line2d_13">
      <path d="M 583.46645 384.48 
L 583.46645 51.84 
" clip-path="url(#pdd62ebde67)" style="fill: none; stroke: #b0b0b0; stroke-width: 0.8; stroke-linecap: square"/>
     </g>
     <g id="line2d_14">
      <g>
       <use xlink:href="#m443aa1363d" x="583.46645" y="384.48" style="stroke: #000000; stroke-width: 0.8"/>
      </g>
     </g>
     <g id="text_7">
      <!-- 3h 10s -->
      <g transform="translate(566.5602 399.078438) scale(0.1 -0.1)">
       <use xlink:href="#DejaVuSans-33"/>
       <use xlink:href="#DejaVuSans-68" transform="translate(63.623047 0)"/>
       <use xlink:href="#DejaVuSans-20" transform="translate(127.001953 0)"/>
       <use xlink:href="#DejaVuSans-31" transform="translate(158.789062 0)"/>
       <use xlink:href="#DejaVuSans-30" transform="translate(222.412109 0)"/>
       <use xlink:href="#DejaVuSans-73" transform="translate(286.035156 0)"/>
      </g>
     </g>
    </g>
    <g id="text_8">
     <!-- Time -->
     <g transform="translate(356.766406 412.756563) scale(0.1 -0.1)">
      <defs>
       <path id="DejaVuSans-54" d="M -19 4666 
L 3928 4666 
L 3928 4134 
L 2272 4134 
L 2272 0 
L 1638 0 
L 1638 4134 
L -19 4134 
L -19 4666 
z
" transform="scale(0.015625)"/>
       <path id="DejaVuSans-69" d="M 603 3500 
L 1178 3500 
L 1178 0 
L 603 0 
L 603 3500 
z
M 603 4863 
L 1178 4863 
L 1178 4134 
L 603 4134 
L 603 4863 
z
" transform="scale(0.015625)"/>
       <path id="DejaVuSans-65" d="M 3597 1894 
L 3597 1613 
L 953 1613 
Q 991 1019 1311 708 
Q 1631 397 2203 397 
Q 2534 397 2845 478 
Q 3156 559 3463 722 
L 3463 178 
Q 3153 47 2828 -22 
Q 2503 -91 2169 -91 
Q 1331 -91 842 396 
Q 353 884 353 1716 
Q 353 2575 817 3079 
Q 1281 3584 2069 3584 
Q 2775 3584 3186 3129 
Q 3597 2675 3597 1894 
z
M 3022 2063 
Q 3016 2534 2758 2815 
Q 2500 3097 2075 3097 
Q 1594 3097 1305 2825 
Q 1016 2553 972 2059 
L 3022 2063 
z
" transform="scale(0.015625)"/>
      </defs>
      <use xlink:href="#DejaVuSans-54"/>
      <use xlink:href="#DejaVuSans-69" transform="translate(57.958984 0)"/>
      <use xlink:href="#DejaVuSans-6d" transform="translate(85.742188 0)"/>
      <use xlink:href="#DejaVuSans-65" transform="translate(183.154297 0)"/>
     </g>
    </g>
   </g>
   <g id="matplotlib.axis_2">
    <g id="ytick_1">
     <g id="line2d_15">
      <path d="M 90 356.682078 
L 648 356.682078 
" clip-path="url(#pdd62ebde67)" style="fill: none; stroke: #b0b0b0; stroke-width: 0.8; stroke-linecap: square"/>
     </g>
     <g id="line2d_16">
      <defs>
       <path id="mc9f52084f6" d="M 0 0 
L -3.5 0 
" style="stroke: #000000; stroke-width: 0.8"/>
      </defs>
      <g>
       <use xlink:href="#mc9f52084f6" x="90" y="356.682078" style="stroke: #000000; stroke-width: 0.8"/>
      </g>
     </g>
     <g id="text_9">
      <!-- 10 -->
      <g transform="translate(70.275 360.481297) scale(0.1 -0.1)">
       <use xlink:href="#DejaVuSans-31"/>
       <use xlink:href="#DejaVuSans-30" transform="translate(63.623047 0)"/>
      </g>
     </g>
    </g>
    <g id="ytick_2">
     <g id="line2d_17">
      <path d="M 90 316.442901 
L 648 316.442901 
" clip-path="url(#pdd62ebde67)" style="fill: none; stroke: #b0b0b0; stroke-width: 0.8; stroke-linecap: square"/>
     </g>
     <g id="line2d_18">
      <g>
       <use xlink:href="#mc9f52084f6" x="90" y="316.442901" style="stroke: #000000; stroke-width: 0.8"/>
      </g>
     </g>
     <g id="text_10">
      <!-- 11 -->
      <g transform="translate(70.275 320.242119) scale(0.1 -0.1)">
       <use xlink:href="#DejaVuSans-31"/>
       <use xlink:href="#DejaVuSans-31" transform="translate(63.623047 0)"/>
      </g>
     </g>
    </g>
    <g id="ytick_3">
     <g id="line2d_19">
      <path d="M 90 276.203723 
L 648 276.203723 
" clip-path="url(#pdd62ebde67)" style="fill: none; stroke: #b0b0b0; stroke-width: 0.8; stroke-linecap: square"/>
     </g>
     <g id="line2d_20">
      <g>
       <use xlink:href="#mc9f52084f6" x="90" y="276.203723" style="stroke: #000000; stroke-width: 0.8"/>
      </g>
     </g>
     <g id="text_11">
      <!-- 12 -->
      <g transform="translate(70.275 280.002942) scale(0.1 -0.1)">
       <use xlink:href="#DejaVuSans-31"/>
       <use xlink:href="#DejaVuSans-32" transform="translate(63.623047 0)"/>
      </g>
     </g>
    </g>
    <g id="ytick_4">
     <g id="line2d_21">
      <path d="M 90 235.964546 
L 648 235.964546 
" clip-path="url(#pdd62ebde67)" style="fill: none; stroke: #b0b0b0; stroke-width: 0.8; stroke-linecap: square"/>
     </g>
     <g id="line2d_22">
      <g>
       <use xlink:href="#mc9f52084f6" x="90" y="235.964546" style="stroke: #000000; stroke-width: 0.8"/>
      </g>
     </g>
     <g id="text_12">
      <!-- 13 -->
      <g transform="translate(70.275 239.763764) scale(0.1 -0.1)">
       <use xlink:href="#DejaVuSans-31"/>
       <use xlink:href="#DejaVuSans-33" transform="translate(63.623047 0)"/>
      </g>
     </g>
    </g>
    <g id="ytick_5">
     <g id="line2d_23">
      <path d="M 90 195.725368 
L 648 195.725368 
" clip-path="url(#pdd62ebde67)" style="fill: none; stroke: #b0b0b0; stroke-width: 0.8; stroke-linecap: square"/>
     </g>
     <g id="line2d_24">
      <g>
       <use xlink:href="#mc9f52084f6" x="90" y="195.725368" style="stroke: #000000; stroke-width: 0.8"/>
      </g>
     </g>
     <g id="text_13">
      <!-- 14 -->
      <g transform="translate(70.275 199.524587) scale(0.1 -0.1)">
       <defs>
        <path id="DejaVuSans-34" d="M 2419 4116 
L 825 1625 
L 2419 1625 
L 2419 4116 
z
M 2253 4666 
L 3047 4666 
L 3047 1625 
L 3713 1625 
L 3713 1100 
L 3047 1100 
L 3047 0 
L 2419 0 
L 2419 1100 
L 313 1100 
L 313 1709 
L 2253 4666 
z
" transform="scale(0.015625)"/>
       </defs>
       <use xlink:href="#DejaVuSans-31"/>
       <use xlink:href="#DejaVuSans-34" transform="translate(63.623047 0)"/>
      </g>
     </g>
    </g>
    <g id="ytick_6">
     <g id="line2d_25">
      <path d="M 90 155.486191 
L 648 155.486191 
" clip-path="url(#pdd62ebde67)" style="fill: none; stroke: #b0b0b0; stroke-width: 0.8; stroke-linecap: square"/>
     </g>
     <g id="line2d_26">
      <g>
       <use xlink:href="#mc9f52084f6" x="90" y="155.486191" style="stroke: #000000; stroke-width: 0.8"/>
      </g>
     </g>
     <g id="text_14">
      <!-- 15 -->
      <g transform="translate(70.275 159.285409) scale(0.1 -0.1)">
       <defs>
        <path id="DejaVuSans-35" d="M 691 4666 
L 3169 4666 
L 3169 4134 
L 1269 4134 
L 1269 2991 
Q 1406 3038 1543 3061 
Q 1681 3084 1819 3084 
Q 2600 3084 3056 2656 
Q 3513 2228 3513 1497 
Q 3513 744 3044 326 
Q 2575 -91 1722 -91 
Q 1428 -91 1123 -41 
Q 819 9 494 109 
L 494 744 
Q 775 591 1075 516 
Q 1375 441 1709 441 
Q 2250 441 2565 725 
Q 2881 1009 2881 1497 
Q 2881 1984 2565 2268 
Q 2250 2553 1709 2553 
Q 1456 2553 1204 2497 
Q 953 2441 691 2322 
L 691 4666 
z
" transform="scale(0.015625)"/>
       </defs>
       <use xlink:href="#DejaVuSans-31"/>
       <use xlink:href="#DejaVuSans-35" transform="translate(63.623047 0)"/>
      </g>
     </g>
    </g>
    <g id="ytick_7">
     <g id="line2d_27">
      <path d="M 90 115.247013 
L 648 115.247013 
" clip-path="url(#pdd62ebde67)" style="fill: none; stroke: #b0b0b0; stroke-width: 0.8; stroke-linecap: square"/>
     </g>
     <g id="line2d_28">
      <g>
       <use xlink:href="#mc9f52084f6" x="90" y="115.247013" style="stroke: #000000; stroke-width: 0.8"/>
      </g>
     </g>
     <g id="text_15">
      <!-- 16 -->
      <g transform="translate(70.275 119.046232) scale(0.1 -0.1)">
       <defs>
        <path id="DejaVuSans-36" d="M 2113 2584 
Q 1688 2584 1439 2293 
Q 1191 2003 1191 1497 
Q 1191 994 1439 701 
Q 1688 409 2113 409 
Q 2538 409 2786 701 
Q 3034 994 3034 1497 
Q 3034 2003 2786 2293 
Q 2538 2584 2113 2584 
z
M 3366 4563 
L 3366 3988 
Q 3128 4100 2886 4159 
Q 2644 4219 2406 4219 
Q 1781 4219 1451 3797 
Q 1122 3375 1075 2522 
Q 1259 2794 1537 2939 
Q 1816 3084 2150 3084 
Q 2853 3084 3261 2657 
Q 3669 2231 3669 1497 
Q 3669 778 3244 343 
Q 2819 -91 2113 -91 
Q 1303 -91 875 529 
Q 447 1150 447 2328 
Q 447 3434 972 4092 
Q 1497 4750 2381 4750 
Q 2619 4750 2861 4703 
Q 3103 4656 3366 4563 
z
" transform="scale(0.015625)"/>
       </defs>
       <use xlink:href="#DejaVuSans-31"/>
       <use xlink:href="#DejaVuSans-36" transform="translate(63.623047 0)"/>
      </g>
     </g>
    </g>
    <g id="ytick_8">
     <g id="line2d_29">
      <path d="M 90 75.007836 
L 648 75.007836 
" clip-path="url(#pdd62ebde67)" style="fill: none; stroke: #b0b0b0; stroke-width: 0.8; stroke-linecap: square"/>
     </g>
     <g id="line2d_30">
      <g>
       <use xlink:href="#mc9f52084f6" x="90" y="75.007836" style="stroke: #000000; stroke-width: 0.8"/>
      </g>
     </g>
     <g id="text_16">
      <!-- 17 -->
      <g transform="translate(70.275 78.807054) scale(0.1 -0.1)">
       <defs>
        <path id="DejaVuSans-37" d="M 525 4666 
L 3525 4666 
L 3525 4397 
L 1831 0 
L 1172 0 
L 2766 4134 
L 525 4134 
L 525 4666 
z
" transform="scale(0.015625)"/>
       </defs>
       <use xlink:href="#DejaVuSans-31"/>
       <use xlink:href="#DejaVuSans-37" transform="translate(63.623047 0)"/>
      </g>
     </g>
    </g>
    <g id="text_17">
     <!-- Temperature (°C) -->
     <g transform="translate(64.195312 261.311562) rotate(-90) scale(0.1 -0.1)">
      <defs>
       <path id="DejaVuSans-70" d="M 1159 525 
L 1159 -1331 
L 581 -1331 
L 581 3500 
L 1159 3500 
L 1159 2969 
Q 1341 3281 1617 3432 
Q 1894 3584 2278 3584 
Q 2916 3584 3314 3078 
Q 3713 2572 3713 1747 
Q 3713 922 3314 415 
Q 2916 -91 2278 -91 
Q 1894 -91 1617 61 
Q 1341 213 1159 525 
z
M 3116 1747 
Q 3116 2381 2855 2742 
Q 2594 3103 2138 3103 
Q 1681 3103 1420 2742 
Q 1159 2381 1159 1747 
Q 1159 1113 1420 752 
Q 1681 391 2138 391 
Q 2594 391 2855 752 
Q 3116 1113 3116 1747 
z
" transform="scale(0.015625)"/>
       <path id="DejaVuSans-72" d="M 2631 2963 
Q 2534 3019 2420 3045 
Q 2306 3072 2169 3072 
Q 1681 3072 1420 2755 
Q 1159 2438 1159 1844 
L 1159 0 
L 581 0 
L 581 3500 
L 1159 3500 
L 1159 2956 
Q 1341 3275 1631 3429 
Q 1922 3584 2338 3584 
Q 2397 3584 2469 3576 
Q 2541 3569 2628 3553 
L 2631 2963 
z
" transform="scale(0.015625)"/>
       <path id="DejaVuSans-61" d="M 2194 1759 
Q 1497 1759 1228 1600 
Q 959 1441 959 1056 
Q 959 750 1161 570 
Q 1363 391 1709 391 
Q 2188 391 2477 730 
Q 2766 1069 2766 1631 
L 2766 1759 
L 2194 1759 
z
M 3341 1997 
L 3341 0 
L 2766 0 
L 2766 531 
Q 2569 213 2275 61 
Q 1981 -91 1556 -91 
Q 1019 -91 701 211 
Q 384 513 384 1019 
Q 384 1609 779 1909 
Q 1175 2209 1959 2209 
L 2766 2209 
L 2766 2266 
Q 2766 2663 2505 2880 
Q 2244 3097 1772 3097 
Q 1472 3097 1187 3025 
Q 903 2953 641 2809 
L 641 3341 
Q 956 3463 1253 3523 
Q 1550 3584 1831 3584 
Q 2591 3584 2966 3190 
Q 3341 2797 3341 1997 
z
" transform="scale(0.015625)"/>
       <path id="DejaVuSans-74" d="M 1172 4494 
L 1172 3500 
L 2356 3500 
L 2356 3053 
L 1172 3053 
L 1172 1153 
Q 1172 725 1289 603 
Q 1406 481 1766 481 
L 2356 481 
L 2356 0 
L 1766 0 
Q 1100 0 847 248 
Q 594 497 594 1153 
L 594 3053 
L 172 3053 
L 172 3500 
L 594 3500 
L 594 4494 
L 1172 4494 
z
" transform="scale(0.015625)"/>
       <path id="DejaVuSans-75" d="M 544 1381 
L 544 3500 
L 1119 3500 
L 1119 1403 
Q 1119 906 1312 657 
Q 1506 409 1894 409 
Q 2359 409 2629 706 
Q 2900 1003 2900 1516 
L 2900 3500 
L 3475 3500 
L 3475 0 
L 2900 0 
L 2900 538 
Q 2691 219 2414 64 
Q 2138 -91 1772 -91 
Q 1169 -91 856 284 
Q 544 659 544 1381 
z
M 1991 3584 
L 1991 3584 
z
" transform="scale(0.015625)"/>
       <path id="DejaVuSans-28" d="M 1984 4856 
Q 1566 4138 1362 3434 
Q 1159 2731 1159 2009 
Q 1159 1288 1364 580 
Q 1569 -128 1984 -844 
L 1484 -844 
Q 1016 -109 783 600 
Q 550 1309 550 2009 
Q 550 2706 781 3412 
Q 1013 4119 1484 4856 
L 1984 4856 
z
" transform="scale(0.015625)"/>
       <path id="DejaVuSans-b0" d="M 1600 4347 
Q 1350 4347 1178 4173 
Q 1006 4000 1006 3750 
Q 1006 3503 1178 3333 
Q 1350 3163 1600 3163 
Q 1850 3163 2022 3333 
Q 2194 3503 2194 3750 
Q 2194 3997 2020 4172 
Q 1847 4347 1600 4347 
z
M 1600 4750 
Q 1800 4750 1984 4673 
Q 2169 4597 2303 4453 
Q 2447 4313 2519 4134 
Q 2591 3956 2591 3750 
Q 2591 3338 2302 3052 
Q 2013 2766 1594 2766 
Q 1172 2766 890 3047 
Q 609 3328 609 3750 
Q 609 4169 896 4459 
Q 1184 4750 1600 4750 
z
" transform="scale(0.015625)"/>
       <path id="DejaVuSans-43" d="M 4122 4306 
L 4122 3641 
Q 3803 3938 3442 4084 
Q 3081 4231 2675 4231 
Q 1875 4231 1450 3742 
Q 1025 3253 1025 2328 
Q 1025 1406 1450 917 
Q 1875 428 2675 428 
Q 3081 428 3442 575 
Q 3803 722 4122 1019 
L 4122 359 
Q 3791 134 3420 21 
Q 3050 -91 2638 -91 
Q 1578 -91 968 557 
Q 359 1206 359 2328 
Q 359 3453 968 4101 
Q 1578 4750 2638 4750 
Q 3056 4750 3426 4639 
Q 3797 4528 4122 4306 
z
" transform="scale(0.015625)"/>
       <path id="DejaVuSans-29" d="M 513 4856 
L 1013 4856 
Q 1481 4119 1714 3412 
Q 1947 2706 1947 2009 
Q 1947 1309 1714 600 
Q 1481 -109 1013 -844 
L 513 -844 
Q 928 -128 1133 580 
Q 1338 1288 1338 2009 
Q 1338 2731 1133 3434 
Q 928 4138 513 4856 
z
" transform="scale(0.015625)"/>
      </defs>
      <use xlink:href="#DejaVuSans-54"/>
      <use xlink:href="#DejaVuSans-65" transform="translate(44.083984 0)"/>
      <use xlink:href="#DejaVuSans-6d" transform="translate(105.607422 0)"/>
      <use xlink:href="#DejaVuSans-70" transform="translate(203.019531 0)"/>
      <use xlink:href="#DejaVuSans-65" transform="translate(266.496094 0)"/>
      <use xlink:href="#DejaVuSans-72" transform="translate(328.019531 0)"/>
      <use xlink:href="#DejaVuSans-61" transform="translate(369.132812 0)"/>
      <use xlink:href="#DejaVuSans-74" transform="translate(430.412109 0)"/>
      <use xlink:href="#DejaVuSans-75" transform="translate(469.621094 0)"/>
      <use xlink:href="#DejaVuSans-72" transform="translate(533 0)"/>
      <use xlink:href="#DejaVuSans-65" transform="translate(571.863281 0)"/>
      <use xlink:href="#DejaVuSans-20" transform="translate(633.386719 0)"/>
      <use xlink:href="#DejaVuSans-28" transform="translate(665.173828 0)"/>
      <use xlink:href="#DejaVuSans-b0" transform="translate(704.1875 0)"/>
      <use xlink:href="#DejaVuSans-43" transform="translate(754.1875 0)"/>
      <use xlink:href="#DejaVuSans-29" transform="translate(824.011719 0)"/>
     </g>
    </g>
   </g>
   <g id="LineCollection_1">
    <path d="M 121.946661 364.72141 
L 121.946661 337.345496 
" clip-path="url(#pdd62ebde67)" style="fill: none; stroke: #1f77b4; stroke-width: 1.5"/>
    <path d="M 183.967278 331.112493 
L 183.967278 303.80657 
" clip-path="url(#pdd62ebde67)" style="fill: none; stroke: #1f77b4; stroke-width: 1.5"/>
    <path d="M 243.960647 305.268654 
L 243.960647 278.199914 
" clip-path="url(#pdd62ebde67)" style="fill: none; stroke: #1f77b4; stroke-width: 1.5"/>
    <path d="M 312.786376 279.403743 
L 312.786376 252.856975 
" clip-path="url(#pdd62ebde67)" style="fill: none; stroke: #1f77b4; stroke-width: 1.5"/>
    <path d="M 384.668648 248.279718 
L 384.668648 219.848573 
" clip-path="url(#pdd62ebde67)" style="fill: none; stroke: #1f77b4; stroke-width: 1.5"/>
    <path d="M 475.603313 210.757927 
L 475.603313 178.715465 
" clip-path="url(#pdd62ebde67)" style="fill: none; stroke: #1f77b4; stroke-width: 1.5"/>
    <path d="M 550.929845 181.252315 
L 550.929845 146.505525 
" clip-path="url(#pdd62ebde67)" style="fill: none; stroke: #1f77b4; stroke-width: 1.5"/>
    <path d="M 616.034936 154.123811 
L 616.034936 117.381753 
" clip-path="url(#pdd62ebde67)" style="fill: none; stroke: #1f77b4; stroke-width: 1.5"/>
   </g>
   <g id="line2d_31">
    <defs>
     <path id="mf7b8116a53" d="M 5 0 
L -5 -0 
" style="stroke: #1f77b4"/>
    </defs>
    <g clip-path="url(#pdd62ebde67)">
     <use xlink:href="#mf7b8116a53" x="121.946661" y="364.72141" style="fill: #1f77b4; stroke: #1f77b4"/>
     <use xlink:href="#mf7b8116a53" x="183.967278" y="331.112493" style="fill: #1f77b4; stroke: #1f77b4"/>
     <use xlink:href="#mf7b8116a53" x="243.960647" y="305.268654" style="fill: #1f77b4; stroke: #1f77b4"/>
     <use xlink:href="#mf7b8116a53" x="312.786376" y="279.403743" style="fill: #1f77b4; stroke: #1f77b4"/>
     <use xlink:href="#mf7b8116a53" x="384.668648" y="248.279718" style="fill: #1f77b4; stroke: #1f77b4"/>
     <use xlink:href="#mf7b8116a53" x="475.603313" y="210.757927" style="fill: #1f77b4; stroke: #1f77b4"/>
     <use xlink:href="#mf7b8116a53" x="550.929845" y="181.252315" style="fill: #1f77b4; stroke: #1f77b4"/>
     <use xlink:href="#mf7b8116a53" x="616.034936" y="154.123811" style="fill: #1f77b4; stroke: #1f77b4"/>
    </g>
   </g>
   <g id="line2d_32">
    <g clip-path="url(#pdd62ebde67)">
     <use xlink:href="#mf7b8116a53" x="121.946661" y="337.345496" style="fill: #1f77b4; stroke: #1f77b4"/>
     <use xlink:href="#mf7b8116a53" x="183.967278" y="303.80657" style="fill: #1f77b4; stroke: #1f77b4"/>
     <use xlink:href="#mf7b8116a53" x="243.960647" y="278.199914" style="fill: #1f77b4; stroke: #1f77b4"/>
     <use xlink:href="#mf7b8116a53" x="312.786376" y="252.856975" style="fill: #1f77b4; stroke: #1f77b4"/>
     <use xlink:href="#mf7b8116a53" x="384.668648" y="219.848573" style="fill: #1f77b4; stroke: #1f77b4"/>
     <use xlink:href="#mf7b8116a53" x="475.603313" y="178.715465" style="fill: #1f77b4; stroke: #1f77b4"/>
     <use xlink:href="#mf7b8116a53" x="550.929845" y="146.505525" style="fill: #1f77b4; stroke: #1f77b4"/>
     <use xlink:href="#mf7b8116a53" x="616.034936" y="117.381753" style="fill: #1f77b4; stroke: #1f77b4"/>
    </g>
   </g>
   <g id="LineCollection_2">
    <path d="M 121.946661 369.36 
L 121.946661 342.840775 
" clip-path="url(#pdd62ebde67)" style="fill: none; stroke: #ff7f0e; stroke-width: 1.5"/>
    <path d="M 183.967278 319.459347 
L 183.967278 291.101245 
" clip-path="url(#pdd62ebde67)" style="fill: none; stroke: #ff7f0e; stroke-width: 1.5"/>
    <path d="M 243.960647 274.257715 
L 243.960647 243.86694 
" clip-path="url(#pdd62ebde67)" style="fill: none; stroke: #ff7f0e; stroke-width: 1.5"/>
    <path d="M 312.786376 244.413056 
L 312.786376 204.831237 
" clip-path="url(#pdd62ebde67)" style="fill: none; stroke: #ff7f0e; stroke-width: 1.5"/>
    <path d="M 384.668648 200.401467 
L 384.668648 161.886879 
" clip-path="url(#pdd62ebde67)" style="fill: none; stroke: #ff7f0e; stroke-width: 1.5"/>
    <path d="M 475.603313 162.795897 
L 475.603313 122.6211 
" clip-path="url(#pdd62ebde67)" style="fill: none; stroke: #ff7f0e; stroke-width: 1.5"/>
    <path d="M 550.929845 136.49619 
L 550.929845 97.039328 
" clip-path="url(#pdd62ebde67)" style="fill: none; stroke: #ff7f0e; stroke-width: 1.5"/>
    <path d="M 616.034936 113.870039 
L 616.034936 74.449649 
" clip-path="url(#pdd62ebde67)" style="fill: none; stroke: #ff7f0e; stroke-width: 1.5"/>
   </g>
   <g id="line2d_33">
    <defs>
     <path id="maed0a55575" d="M 5 0 
L -5 -0 
" style="stroke: #ff7f0e"/>
    </defs>
    <g clip-path="url(#pdd62ebde67)">
     <use xlink:href="#maed0a55575" x="121.946661" y="369.36" style="fill: #ff7f0e; stroke: #ff7f0e"/>
     <use xlink:href="#maed0a55575" x="183.967278" y="319.459347" style="fill: #ff7f0e; stroke: #ff7f0e"/>
     <use xlink:href="#maed0a55575" x="243.960647" y="274.257715" style="fill: #ff7f0e; stroke: #ff7f0e"/>
     <use xlink:href="#maed0a55575" x="312.786376" y="244.413056" style="fill: #ff7f0e; stroke: #ff7f0e"/>
     <use xlink:href="#maed0a55575" x="384.668648" y="200.401467" style="fill: #ff7f0e; stroke: #ff7f0e"/>
     <use xlink:href="#maed0a55575" x="475.603313" y="162.795897" style="fill: #ff7f0e; stroke: #ff7f0e"/>
     <use xlink:href="#maed0a55575" x="550.929845" y="136.49619" style="fill: #ff7f0e; stroke: #ff7f0e"/>
     <use xlink:href="#maed0a55575" x="616.034936" y="113.870039" style="fill: #ff7f0e; stroke: #ff7f0e"/>
    </g>
   </g>
   <g id="line2d_34">
    <g clip-path="url(#pdd62ebde67)">
     <use xlink:href="#maed0a55575" x="121.946661" y="342.840775" style="fill: #ff7f0e; stroke: #ff7f0e"/>
     <use xlink:href="#maed0a55575" x="183.967278" y="291.101245" style="fill: #ff7f0e; stroke: #ff7f0e"/>
     <use xlink:href="#maed0a55575" x="243.960647" y="243.86694" style="fill: #ff7f0e; stroke: #ff7f0e"/>
     <use xlink:href="#maed0a55575" x="312.786376" y="204.831237" style="fill: #ff7f0e; stroke: #ff7f0e"/>
     <use xlink:href="#maed0a55575" x="384.668648" y="161.886879" style="fill: #ff7f0e; stroke: #ff7f0e"/>
     <use xlink:href="#maed0a55575" x="475.603313" y="122.6211" style="fill: #ff7f0e; stroke: #ff7f0e"/>
     <use xlink:href="#maed0a55575" x="550.929845" y="97.039328" style="fill: #ff7f0e; stroke: #ff7f0e"/>
     <use xlink:href="#maed0a55575" x="616.034936" y="74.449649" style="fill: #ff7f0e; stroke: #ff7f0e"/>
    </g>
   </g>
   <g id="line2d_35">
    <path d="M 115.363636 336.562489 
L 128.529685 328.514654 
L 177.3665 296.323312 
L 190.568056 284.251559 
L 237.378977 256.084134 
L 250.542318 239.988463 
L 306.186247 211.821039 
L 319.386504 203.773204 
L 378.068844 175.605779 
L 391.268451 171.581862 
L 469.00313 135.366602 
L 482.203495 127.318766 
L 544.348174 103.17526 
L 557.511516 95.127424 
L 609.433508 70.983918 
L 622.636364 66.96 
" clip-path="url(#pdd62ebde67)" style="fill: none; stroke: #2ca02c; stroke-width: 1.5; stroke-linecap: square"/>
    <defs>
     <path id="m29fe44beb7" d="M 0 3 
C 0.795609 3 1.55874 2.683901 2.12132 2.12132 
C 2.683901 1.55874 3 0.795609 3 0 
C 3 -0.795609 2.683901 -1.55874 2.12132 -2.12132 
C 1.55874 -2.683901 0.795609 -3 0 -3 
C -0.795609 -3 -1.55874 -2.683901 -2.12132 -2.12132 
C -2.683901 -1.55874 -3 -0.795609 -3 0 
C -3 0.795609 -2.683901 1.55874 -2.12132 2.12132 
C -1.55874 2.683901 -0.795609 3 0 3 
z
" style="stroke: #2ca02c"/>
    </defs>
    <g clip-path="url(#pdd62ebde67)">
     <use xlink:href="#m29fe44beb7" x="115.363636" y="336.562489" style="fill: #2ca02c; stroke: #2ca02c"/>
     <use xlink:href="#m29fe44beb7" x="128.529685" y="328.514654" style="fill: #2ca02c; stroke: #2ca02c"/>
     <use xlink:href="#m29fe44beb7" x="177.3665" y="296.323312" style="fill: #2ca02c; stroke: #2ca02c"/>
     <use xlink:href="#m29fe44beb7" x="190.568056" y="284.251559" style="fill: #2ca02c; stroke: #2ca02c"/>
     <use xlink:href="#m29fe44beb7" x="237.378977" y="256.084134" style="fill: #2ca02c; stroke: #2ca02c"/>
     <use xlink:href="#m29fe44beb7" x="250.542318" y="239.988463" style="fill: #2ca02c; stroke: #2ca02c"/>
     <use xlink:href="#m29fe44beb7" x="306.186247" y="211.821039" style="fill: #2ca02c; stroke: #2ca02c"/>
     <use xlink:href="#m29fe44beb7" x="319.386504" y="203.773204" style="fill: #2ca02c; stroke: #2ca02c"/>
     <use xlink:href="#m29fe44beb7" x="378.068844" y="175.605779" style="fill: #2ca02c; stroke: #2ca02c"/>
     <use xlink:href="#m29fe44beb7" x="391.268451" y="171.581862" style="fill: #2ca02c; stroke: #2ca02c"/>
     <use xlink:href="#m29fe44beb7" x="469.00313" y="135.366602" style="fill: #2ca02c; stroke: #2ca02c"/>
     <use xlink:href="#m29fe44beb7" x="482.203495" y="127.318766" style="fill: #2ca02c; stroke: #2ca02c"/>
     <use xlink:href="#m29fe44beb7" x="544.348174" y="103.17526" style="fill: #2ca02c; stroke: #2ca02c"/>
     <use xlink:href="#m29fe44beb7" x="557.511516" y="95.127424" style="fill: #2ca02c; stroke: #2ca02c"/>
     <use xlink:href="#m29fe44beb7" x="609.433508" y="70.983918" style="fill: #2ca02c; stroke: #2ca02c"/>
     <use xlink:href="#m29fe44beb7" x="622.636364" y="66.96" style="fill: #2ca02c; stroke: #2ca02c"/>
    </g>
   </g>
   <g id="line2d_36">
    <path d="M 121.946661 351.033453 
L 183.967278 317.459531 
L 243.960647 291.734284 
L 312.786376 266.130359 
L 384.668648 234.064145 
L 475.603313 194.736696 
L 550.929845 163.87892 
L 616.034936 135.752782 
" clip-path="url(#pdd62ebde67)" style="fill: none; stroke: #1f77b4; stroke-width: 1.5; stroke-linecap: square"/>
    <defs>
     <path id="mde7575b54f" d="M 0 3 
C 0.795609 3 1.55874 2.683901 2.12132 2.12132 
C 2.683901 1.55874 3 0.795609 3 0 
C 3 -0.795609 2.683901 -1.55874 2.12132 -2.12132 
C 1.55874 -2.683901 0.795609 -3 0 -3 
C -0.795609 -3 -1.55874 -2.683901 -2.12132 -2.12132 
C -2.683901 -1.55874 -3 -0.795609 -3 0 
C -3 0.795609 -2.683901 1.55874 -2.12132 2.12132 
C -1.55874 2.683901 -0.795609 3 0 3 
z
" style="stroke: #1f77b4"/>
    </defs>
    <g clip-path="url(#pdd62ebde67)">
     <use xlink:href="#mde7575b54f" x="121.946661" y="351.033453" style="fill: #1f77b4; stroke: #1f77b4"/>
     <use xlink:href="#mde7575b54f" x="183.967278" y="317.459531" style="fill: #1f77b4; stroke: #1f77b4"/>
     <use xlink:href="#mde7575b54f" x="243.960647" y="291.734284" style="fill: #1f77b4; stroke: #1f77b4"/>
     <use xlink:href="#mde7575b54f" x="312.786376" y="266.130359" style="fill: #1f77b4; stroke: #1f77b4"/>
     <use xlink:href="#mde7575b54f" x="384.668648" y="234.064145" style="fill: #1f77b4; stroke: #1f77b4"/>
     <use xlink:href="#mde7575b54f" x="475.603313" y="194.736696" style="fill: #1f77b4; stroke: #1f77b4"/>
     <use xlink:href="#mde7575b54f" x="550.929845" y="163.87892" style="fill: #1f77b4; stroke: #1f77b4"/>
     <use xlink:href="#mde7575b54f" x="616.034936" y="135.752782" style="fill: #1f77b4; stroke: #1f77b4"/>
    </g>
   </g>
   <g id="line2d_37">
    <path d="M 121.946661 356.100387 
L 183.967278 305.280296 
L 243.960647 259.062328 
L 312.786376 224.622147 
L 384.668648 181.144173 
L 475.603313 142.708498 
L 550.929845 116.767759 
L 616.034936 94.159844 
" clip-path="url(#pdd62ebde67)" style="fill: none; stroke: #ff7f0e; stroke-width: 1.5; stroke-linecap: square"/>
    <defs>
     <path id="mba263fb307" d="M 0 3 
C 0.795609 3 1.55874 2.683901 2.12132 2.12132 
C 2.683901 1.55874 3 0.795609 3 0 
C 3 -0.795609 2.683901 -1.55874 2.12132 -2.12132 
C 1.55874 -2.683901 0.795609 -3 0 -3 
C -0.795609 -3 -1.55874 -2.683901 -2.12132 -2.12132 
C -2.683901 -1.55874 -3 -0.795609 -3 0 
C -3 0.795609 -2.683901 1.55874 -2.12132 2.12132 
C -1.55874 2.683901 -0.795609 3 0 3 
z
" style="stroke: #ff7f0e"/>
    </defs>
    <g clip-path="url(#pdd62ebde67)">
     <use xlink:href="#mba263fb307" x="121.946661" y="356.100387" style="fill: #ff7f0e; stroke: #ff7f0e"/>
     <use xlink:href="#mba263fb307" x="183.967278" y="305.280296" style="fill: #ff7f0e; stroke: #ff7f0e"/>
     <use xlink:href="#mba263fb307" x="243.960647" y="259.062328" style="fill: #ff7f0e; stroke: #ff7f0e"/>
     <use xlink:href="#mba263fb307" x="312.786376" y="224.622147" style="fill: #ff7f0e; stroke: #ff7f0e"/>
     <use xlink:href="#mba263fb307" x="384.668648" y="181.144173" style="fill: #ff7f0e; stroke: #ff7f0e"/>
     <use xlink:href="#mba263fb307" x="475.603313" y="142.708498" style="fill: #ff7f0e; stroke: #ff7f0e"/>
     <use xlink:href="#mba263fb307" x="550.929845" y="116.767759" style="fill: #ff7f0e; stroke: #ff7f0e"/>
     <use xlink:href="#mba263fb307" x="616.034936" y="94.159844" style="fill: #ff7f0e; stroke: #ff7f0e"/>
    </g>
   </g>
   <g id="patch_3">
    <path d="M 90 384.48 
L 90 51.84 
" style="fill: none; stroke: #000000; stroke-width: 0.8; stroke-linejoin: miter; stroke-linecap: square"/>
   </g>
   <g id="patch_4">
    <path d="M 648 384.48 
L 648 51.84 
" style="fill: none; stroke: #000000; stroke-width: 0.8; stroke-linejoin: miter; stroke-linecap: square"/>
   </g>
   <g id="patch_5">
    <path d="M 90 384.48 
L 648 384.48 
" style="fill: none; stroke: #000000; stroke-width: 0.8; stroke-linejoin: miter; stroke-linecap: square"/>
   </g>
   <g id="patch_6">
    <path d="M 90 51.84 
L 648 51.84 
" style="fill: none; stroke: #000000; stroke-width: 0.8; stroke-linejoin: miter; stroke-linecap: square"/>
   </g>
   <g id="text_18">
    <!-- Temperature by Region -->
    <g transform="translate(299.281875 45.84) scale(0.12 -0.12)">
     <defs>
      <path id="DejaVuSans-62" d="M 3116 1747 
Q 3116 2381 2855 2742 
Q 2594 3103 2138 3103 
Q 1681 3103 1420 2742 
Q 1159 2381 1159 1747 
Q 1159 1113 1420 752 
Q 1681 391 2138 391 
Q 2594 391 2855 752 
Q 3116 1113 3116 1747 
z
M 1159 2969 
Q 1341 3281 1617 3432 
Q 1894 3584 2278 3584 
Q 2916 3584 3314 3078 
Q 3713 2572 3713 1747 
Q 3713 922 3314 415 
Q 2916 -91 2278 -91 
Q 1894 -91 1617 61 
Q 1341 213 1159 525 
L 1159 0 
L 581 0 
L 581 4863 
L 1159 4863 
L 1159 2969 
z
" transform="scale(0.015625)"/>
      <path id="DejaVuSans-79" d="M 2059 -325 
Q 1816 -950 1584 -1140 
Q 1353 -1331 966 -1331 
L 506 -1331 
L 506 -850 
L 844 -850 
Q 1081 -850 1212 -737 
Q 1344 -625 1503 -206 
L 1606 56 
L 191 3500 
L 800 3500 
L 1894 763 
L 2988 3500 
L 3597 3500 
L 2059 -325 
z
" transform="scale(0.015625)"/>
      <path id="DejaVuSans-52" d="M 2841 2188 
Q 3044 2119 3236 1894 
Q 3428 1669 3622 1275 
L 4263 0 
L 3584 0 
L 2988 1197 
Q 2756 1666 2539 1819 
Q 2322 1972 1947 1972 
L 1259 1972 
L 1259 0 
L 628 0 
L 628 4666 
L 2053 4666 
Q 2853 4666 3247 4331 
Q 3641 3997 3641 3322 
Q 3641 2881 3436 2590 
Q 3231 2300 2841 2188 
z
M 1259 4147 
L 1259 2491 
L 2053 2491 
Q 2509 2491 2742 2702 
Q 2975 2913 2975 3322 
Q 2975 3731 2742 3939 
Q 2509 4147 2053 4147 
L 1259 4147 
z
" transform="scale(0.015625)"/>
      <path id="DejaVuSans-67" d="M 2906 1791 
Q 2906 2416 2648 2759 
Q 2391 3103 1925 3103 
Q 1463 3103 1205 2759 
Q 947 2416 947 1791 
Q 947 1169 1205 825 
Q 1463 481 1925 481 
Q 2391 481 2648 825 
Q 2906 1169 2906 1791 
z
M 3481 434 
Q 3481 -459 3084 -895 
Q 2688 -1331 1869 -1331 
Q 1566 -1331 1297 -1286 
Q 1028 -1241 775 -1147 
L 775 -588 
Q 1028 -725 1275 -790 
Q 1522 -856 1778 -856 
Q 2344 -856 2625 -561 
Q 2906 -266 2906 331 
L 2906 616 
Q 2728 306 2450 153 
Q 2172 0 1784 0 
Q 1141 0 747 490 
Q 353 981 353 1791 
Q 353 2603 747 3093 
Q 1141 3584 1784 3584 
Q 2172 3584 2450 3431 
Q 2728 3278 2906 2969 
L 2906 3500 
L 3481 3500 
L 3481 434 
z
" transform="scale(0.015625)"/>
      <path id="DejaVuSans-6f" d="M 1959 3097 
Q 1497 3097 1228 2736 
Q 959 2375 959 1747 
Q 959 1119 1226 758 
Q 1494 397 1959 397 
Q 2419 397 2687 759 
Q 2956 1122 2956 1747 
Q 2956 2369 2687 2733 
Q 2419 3097 1959 3097 
z
M 1959 3584 
Q 2709 3584 3137 3096 
Q 3566 2609 3566 1747 
Q 3566 888 3137 398 
Q 2709 -91 1959 -91 
Q 1206 -91 779 398 
Q 353 888 353 1747 
Q 353 2609 779 3096 
Q 1206 3584 1959 3584 
z
" transform="scale(0.015625)"/>
      <path id="DejaVuSans-6e" d="M 3513 2113 
L 3513 0 
L 2938 0 
L 2938 2094 
Q 2938 2591 2744 2837 
Q 2550 3084 2163 3084 
Q 1697 3084 1428 2787 
Q 1159 2491 1159 1978 
L 1159 0 
L 581 0 
L 581 3500 
L 1159 3500 
L 1159 2956 
Q 1366 3272 1645 3428 
Q 1925 3584 2291 3584 
Q 2894 3584 3203 3211 
Q 3513 2838 3513 2113 
z
" transform="scale(0.015625)"/>
     </defs>
     <use xlink:href="#DejaVuSans-54"/>
     <use xlink:href="#DejaVuSans-65" transform="translate(44.083984 0)"/>
     <use xlink:href="#DejaVuSans-6d" transform="translate(105.607422 0)"/>
     <use xlink:href="#DejaVuSans-70" transform="translate(203.019531 0)"/>
     <use xlink:href="#DejaVuSans-65" transform="translate(266.496094 0)"/>
     <use xlink:href="#DejaVuSans-72" transform="translate(328.019531 0)"/>
     <use xlink:href="#DejaVuSans-61" transform="translate(369.132812 0)"/>
     <use xlink:href="#DejaVuSans-74" transform="translate(430.412109 0)"/>
     <use xlink:href="#DejaVuSans-75" transform="translate(469.621094 0)"/>
     <use xlink:href="#DejaVuSans-72" transform="translate(533 0)"/>
     <use xlink:href="#DejaVuSans-65" transform="translate(571.863281 0)"/>
     <use xlink:href="#DejaVuSans-20" transform="translate(633.386719 0)"/>
     <use xlink:href="#DejaVuSans-62" transform="translate(665.173828 0)"/>
     <use xlink:href="#DejaVuSans-79" transform="translate(728.650391 0)"/>
     <use xlink:href="#DejaVuSans-20" transform="translate(787.830078 0)"/>
     <use xlink:href="#DejaVuSans-52" transform="translate(819.617188 0)"/>
     <use xlink:href="#DejaVuSans-65" transform="translate(884.599609 0)"/>
     <use xlink:href="#DejaVuSans-67" transform="translate(946.123047 0)"/>
     <use xlink:href="#DejaVuSans-69" transform="translate(1009.599609 0)"/>
     <use xlink:href="#DejaVuSans-6f" transform="translate(1037.382812 0)"/>
     <use xlink:href="#DejaVuSans-6e" transform="translate(1098.564453 0)"/>
    </g>
   </g>
   <g id="legend_1">
    <g id="patch_7">
     <path d="M 97 103.874375 
L 249.304688 103.874375 
Q 251.304688 103.874375 251.304688 101.874375 
L 251.304688 58.84 
Q 251.304688 56.84 249.304688 56.84 
L 97 56.84 
Q 95 56.84 95 58.84 
L 95 101.874375 
Q 95 103.874375 97 103.874375 
z
" style="fill: #ffffff; opacity: 0.8; stroke: #cccccc; stroke-linejoin: miter"/>
    </g>
    <g id="line2d_38">
     <path d="M 99 64.938437 
L 109 64.938437 
L 119 64.938437 
" style="fill: none; stroke: #2ca02c; stroke-width: 1.5; stroke-linecap: square"/>
     <g>
      <use xlink:href="#m29fe44beb7" x="109" y="64.938437" style="fill: #2ca02c; stroke: #2ca02c"/>
     </g>
    </g>
    <g id="text_19">
     <!-- Fibre Optic Temperature -->
     <g transform="translate(127 68.438437) scale(0.1 -0.1)">
      <defs>
       <path id="DejaVuSans-46" d="M 628 4666 
L 3309 4666 
L 3309 4134 
L 1259 4134 
L 1259 2759 
L 3109 2759 
L 3109 2228 
L 1259 2228 
L 1259 0 
L 628 0 
L 628 4666 
z
" transform="scale(0.015625)"/>
       <path id="DejaVuSans-4f" d="M 2522 4238 
Q 1834 4238 1429 3725 
Q 1025 3213 1025 2328 
Q 1025 1447 1429 934 
Q 1834 422 2522 422 
Q 3209 422 3611 934 
Q 4013 1447 4013 2328 
Q 4013 3213 3611 3725 
Q 3209 4238 2522 4238 
z
M 2522 4750 
Q 3503 4750 4090 4092 
Q 4678 3434 4678 2328 
Q 4678 1225 4090 567 
Q 3503 -91 2522 -91 
Q 1538 -91 948 565 
Q 359 1222 359 2328 
Q 359 3434 948 4092 
Q 1538 4750 2522 4750 
z
" transform="scale(0.015625)"/>
       <path id="DejaVuSans-63" d="M 3122 3366 
L 3122 2828 
Q 2878 2963 2633 3030 
Q 2388 3097 2138 3097 
Q 1578 3097 1268 2742 
Q 959 2388 959 1747 
Q 959 1106 1268 751 
Q 1578 397 2138 397 
Q 2388 397 2633 464 
Q 2878 531 3122 666 
L 3122 134 
Q 2881 22 2623 -34 
Q 2366 -91 2075 -91 
Q 1284 -91 818 406 
Q 353 903 353 1747 
Q 353 2603 823 3093 
Q 1294 3584 2113 3584 
Q 2378 3584 2631 3529 
Q 2884 3475 3122 3366 
z
" transform="scale(0.015625)"/>
      </defs>
      <use xlink:href="#DejaVuSans-46"/>
      <use xlink:href="#DejaVuSans-69" transform="translate(50.269531 0)"/>
      <use xlink:href="#DejaVuSans-62" transform="translate(78.052734 0)"/>
      <use xlink:href="#DejaVuSans-72" transform="translate(141.529297 0)"/>
      <use xlink:href="#DejaVuSans-65" transform="translate(180.392578 0)"/>
      <use xlink:href="#DejaVuSans-20" transform="translate(241.916016 0)"/>
      <use xlink:href="#DejaVuSans-4f" transform="translate(273.703125 0)"/>
      <use xlink:href="#DejaVuSans-70" transform="translate(352.414062 0)"/>
      <use xlink:href="#DejaVuSans-74" transform="translate(415.890625 0)"/>
      <use xlink:href="#DejaVuSans-69" transform="translate(455.099609 0)"/>
      <use xlink:href="#DejaVuSans-63" transform="translate(482.882812 0)"/>
      <use xlink:href="#DejaVuSans-20" transform="translate(537.863281 0)"/>
      <use xlink:href="#DejaVuSans-54" transform="translate(569.650391 0)"/>
      <use xlink:href="#DejaVuSans-65" transform="translate(613.734375 0)"/>
      <use xlink:href="#DejaVuSans-6d" transform="translate(675.257812 0)"/>
      <use xlink:href="#DejaVuSans-70" transform="translate(772.669922 0)"/>
      <use xlink:href="#DejaVuSans-65" transform="translate(836.146484 0)"/>
      <use xlink:href="#DejaVuSans-72" transform="translate(897.669922 0)"/>
      <use xlink:href="#DejaVuSans-61" transform="translate(938.783203 0)"/>
      <use xlink:href="#DejaVuSans-74" transform="translate(1000.0625 0)"/>
      <use xlink:href="#DejaVuSans-75" transform="translate(1039.271484 0)"/>
      <use xlink:href="#DejaVuSans-72" transform="translate(1102.650391 0)"/>
      <use xlink:href="#DejaVuSans-65" transform="translate(1141.513672 0)"/>
     </g>
    </g>
    <g id="LineCollection_3">
     <path d="M 109 84.616562 
L 109 74.616562 
" style="fill: none; stroke: #1f77b4; stroke-width: 1.5"/>
    </g>
    <g id="line2d_39">
     <g>
      <use xlink:href="#mf7b8116a53" x="109" y="84.616562" style="fill: #1f77b4; stroke: #1f77b4"/>
     </g>
    </g>
    <g id="line2d_40">
     <g>
      <use xlink:href="#mf7b8116a53" x="109" y="74.616562" style="fill: #1f77b4; stroke: #1f77b4"/>
     </g>
    </g>
    <g id="line2d_41">
     <path d="M 99 79.616562 
L 119 79.616562 
" style="fill: none; stroke: #1f77b4; stroke-width: 1.5; stroke-linecap: square"/>
    </g>
    <g id="line2d_42">
     <g>
      <use xlink:href="#mde7575b54f" x="109" y="79.616562" style="fill: #1f77b4; stroke: #1f77b4"/>
     </g>
    </g>
    <g id="text_20">
     <!-- NMR Tube 1 -->
     <g transform="translate(127 83.116562) scale(0.1 -0.1)">
      <defs>
       <path id="DejaVuSans-4e" d="M 628 4666 
L 1478 4666 
L 3547 763 
L 3547 4666 
L 4159 4666 
L 4159 0 
L 3309 0 
L 1241 3903 
L 1241 0 
L 628 0 
L 628 4666 
z
" transform="scale(0.015625)"/>
       <path id="DejaVuSans-4d" d="M 628 4666 
L 1569 4666 
L 2759 1491 
L 3956 4666 
L 4897 4666 
L 4897 0 
L 4281 0 
L 4281 4097 
L 3078 897 
L 2444 897 
L 1241 4097 
L 1241 0 
L 628 0 
L 628 4666 
z
" transform="scale(0.015625)"/>
      </defs>
      <use xlink:href="#DejaVuSans-4e"/>
      <use xlink:href="#DejaVuSans-4d" transform="translate(74.804688 0)"/>
      <use xlink:href="#DejaVuSans-52" transform="translate(161.083984 0)"/>
      <use xlink:href="#DejaVuSans-20" transform="translate(230.566406 0)"/>
      <use xlink:href="#DejaVuSans-54" transform="translate(262.353516 0)"/>
      <use xlink:href="#DejaVuSans-75" transform="translate(308.3125 0)"/>
      <use xlink:href="#DejaVuSans-62" transform="translate(371.691406 0)"/>
      <use xlink:href="#DejaVuSans-65" transform="translate(435.167969 0)"/>
      <use xlink:href="#DejaVuSans-20" transform="translate(496.691406 0)"/>
      <use xlink:href="#DejaVuSans-31" transform="translate(528.478516 0)"/>
     </g>
    </g>
    <g id="LineCollection_4">
     <path d="M 109 99.294687 
L 109 89.294687 
" style="fill: none; stroke: #ff7f0e; stroke-width: 1.5"/>
    </g>
    <g id="line2d_43">
     <g>
      <use xlink:href="#maed0a55575" x="109" y="99.294687" style="fill: #ff7f0e; stroke: #ff7f0e"/>
     </g>
    </g>
    <g id="line2d_44">
     <g>
      <use xlink:href="#maed0a55575" x="109" y="89.294687" style="fill: #ff7f0e; stroke: #ff7f0e"/>
     </g>
    </g>
    <g id="line2d_45">
     <path d="M 99 94.294687 
L 119 94.294687 
" style="fill: none; stroke: #ff7f0e; stroke-width: 1.5; stroke-linecap: square"/>
    </g>
    <g id="line2d_46">
     <g>
      <use xlink:href="#mba263fb307" x="109" y="94.294687" style="fill: #ff7f0e; stroke: #ff7f0e"/>
     </g>
    </g>
    <g id="text_21">
     <!-- NMR Tube 2 -->
     <g transform="translate(127 97.794687) scale(0.1 -0.1)">
      <use xlink:href="#DejaVuSans-4e"/>
      <use xlink:href="#DejaVuSans-4d" transform="translate(74.804688 0)"/>
      <use xlink:href="#DejaVuSans-52" transform="translate(161.083984 0)"/>
      <use xlink:href="#DejaVuSans-20" transform="translate(230.566406 0)"/>
      <use xlink:href="#DejaVuSans-54" transform="translate(262.353516 0)"/>
      <use xlink:href="#DejaVuSans-75" transform="translate(308.3125 0)"/>
      <use xlink:href="#DejaVuSans-62" transform="translate(371.691406 0)"/>
      <use xlink:href="#DejaVuSans-65" transform="translate(435.167969 0)"/>
      <use xlink:href="#DejaVuSans-20" transform="translate(496.691406 0)"/>
      <use xlink:href="#DejaVuSans-32" transform="translate(528.478516 0)"/>
     </g>
    </g>
   </g>
  </g>
 </g>
 <defs>
  <clipPath id="pdd62ebde67">
   <rect x="90" y="51.84" width="558" height="332.64"/>
  </clipPath>
 </defs>
</svg>
